<?xml version="1.0" encoding="UTF-8"?>
<svg width="24px" height="24px" viewBox="0 0 24 24" version="1.1" xmlns="http://www.w3.org/2000/svg" xmlns:xlink="http://www.w3.org/1999/xlink">
    <title>24x24@1x</title>
    <g id="24x24" stroke="none" stroke-width="1" fill="none" fill-rule="evenodd">
        <path d="M23,1 L1,1 L1,4.54011303 C1.0003859,4.54011303 2.60072971,5.30854249 4.38823695,7.18005372 C4.90592713,7.72206337 5.43943939,8.35684372 5.9542353,9.09201976 C7.68848778,11.5688704 9.21165079,15.187775 9.21165079,20.2598754 C9.21165079,21.0590166 9.21165079,21.9807931 9.21165079,23 L14.7049939,23 C14.7049939,21.9807931 14.7049939,21.0590166 14.7049939,20.2598754 C14.7049939,15.187775 16.2190882,11.0855308 17.9533407,8.60889197 C18.4683296,7.87350413 19.0016489,7.23893558 19.519532,6.69692594 C21.3066533,4.82583832 22.915487,4.54011303 22.9164518,4.54011303 L23,4.54011303 L23,1" id="Tee-Copy" fill="#1A1919"></path>
    </g>
</svg>