<?xml version="1.0" encoding="UTF-8"?>
<svg width="514px" height="419px" viewBox="0 0 514 419" version="1.1" xmlns="http://www.w3.org/2000/svg" xmlns:xlink="http://www.w3.org/1999/xlink">
    <title>TeeTimeCaddieIcon-RoundHands</title>
    <g id="TeeTimeCaddieIcon-RoundHands" stroke="none" stroke-width="1" fill="none" fill-rule="evenodd">
        <path d="M152.004,265.099 L37.986,265.099 L37.986,281.813 C37.988,281.813 46.282,285.441 55.546,294.277 C58.229,296.836 60.994,299.833 63.662,303.304 C72.65,314.998 80.544,332.084 80.544,356.031 C80.544,359.804 80.544,364.156 80.544,368.968 L109.014,368.968 C109.014,364.156 109.014,359.804 109.014,356.031 C109.014,332.084 116.861,312.716 125.849,301.023 C128.518,297.551 131.282,294.555 133.966,291.996 C143.228,283.162 151.566,281.813 151.571,281.813 L152.004,281.813 L152.004,265.099" id="Tee" fill="#1A1919"></path>
        <path d="M450.906,220.918 C450.906,295.427 390.504,355.829 315.995,355.829 C241.486,355.829 181.084,295.427 181.084,220.918 C181.084,146.408 241.486,86.007 315.995,86.007 C390.504,86.007 450.906,146.408 450.906,220.918 Z" id="Ball-Outline" stroke="#1A1919" stroke-width="28" transform="translate(315.995, 220.918) rotate(115) translate(-315.995, -220.918)"></path>
        <g id="Clock-Hands" transform="translate(344.8357, 206.259) rotate(115) translate(-344.8357, -206.259)translate(310.7115, 127.8004)" fill="#0A0B09">
            <path d="M59.21025,107.791 L57.12725,107.791 C52.15525,107.791 48.08825,103.724 48.08825,98.753 L48.08825,9.039 C48.08825,4.067 52.15525,0 57.12725,0 L59.21025,0 C64.18125,0 68.24825,4.067 68.24825,9.039 L68.24825,98.753 C68.24825,103.724 64.18125,107.791 59.21025,107.791" id="Fill-4"></path>
            <path d="M4.10925,154.281 L2.63625,152.808 C-0.87875,149.293 -0.87875,143.541 2.63625,140.026 L51.05125,91.61 C54.56725,88.095 60.31925,88.095 63.83425,91.61 L65.30725,93.083 C68.82225,96.598 68.82225,102.35 65.30725,105.865 L16.89125,154.281 C13.37625,157.796 7.62425,157.796 4.10925,154.281" id="Fill-5"></path>
        </g>
    </g>
</svg>