<?xml version="1.0" encoding="UTF-8"?>
<svg width="496px" height="496px" viewBox="0 0 496 496" version="1.1" xmlns="http://www.w3.org/2000/svg" xmlns:xlink="http://www.w3.org/1999/xlink">
    <title>TeeTimeCaddieIcon-RoundHands</title>
    <g id="TeeTimeCaddieIcon-RoundHands" stroke="none" stroke-width="1" fill="none" fill-rule="evenodd">
        <path d="M305.004,358.099 L190.986,358.099 L190.986,374.813 C190.988,374.813 199.282,378.441 208.546,387.277 C211.229,389.836 213.994,392.833 216.662,396.304 C225.65,407.998 233.544,425.084 233.544,449.031 C233.544,452.804 233.544,457.156 233.544,461.968 L262.014,461.968 C262.014,457.156 262.014,452.804 262.014,449.031 C262.014,425.084 269.861,405.716 278.849,394.023 C281.518,390.551 284.282,387.555 286.966,384.996 C296.228,376.162 304.566,374.813 304.571,374.813 L305.004,374.813 L305.004,358.099" id="Tee" fill="#1A1919"></path>
        <path d="M382.906,183.918 C382.906,258.427 322.504,318.829 247.995,318.829 C173.486,318.829 113.084,258.427 113.084,183.918 C113.084,109.408 173.486,49.007 247.995,49.007 C322.504,49.007 382.906,109.408 382.906,183.918 Z" id="Ball-Outline" stroke="#1A1919" stroke-width="28"></path>
        <line x1="339" y1="94" x2="153.394138" y2="279.105862" id="Strike-Through-Line" stroke="#1A1919" stroke-width="28" stroke-linecap="square"></line>
    </g>
</svg>