<?xml version="1.0" encoding="UTF-8"?>
<svg width="128px" height="128px" viewBox="0 0 128 128" version="1.1" xmlns="http://www.w3.org/2000/svg" xmlns:xlink="http://www.w3.org/1999/xlink">
    <title>512x512 (Android)@1x</title>
    <g id="512x512-(Android)" stroke="none" stroke-width="1" fill="none" fill-rule="evenodd">
        <rect fill="#FFFFFF" x="0" y="0" width="128" height="128"></rect>
        <path d="M121.004,12.099 L6.986,12.099 L6.986,28.813 C6.988,28.813 15.282,32.441 24.546,41.277 C27.229,43.836 29.994,46.833 32.662,50.304 C41.65,61.998 49.544,79.084 49.544,103.031 C49.544,106.804 49.544,111.156 49.544,115.968 L78.014,115.968 C78.014,111.156 78.014,106.804 78.014,103.031 C78.014,79.084 85.861,59.716 94.849,48.023 C97.518,44.551 100.282,41.555 102.966,38.996 C112.228,30.162 120.566,28.813 120.571,28.813 L121.004,28.813 L121.004,12.099" id="Tee" fill="#1A1919"></path>
    </g>
</svg>