<?xml version="1.0" encoding="UTF-8"?>
<svg width="24px" height="24px" viewBox="0 0 24 24" version="1.1" xmlns="http://www.w3.org/2000/svg" xmlns:xlink="http://www.w3.org/1999/xlink">
    <title>TeeTimeCaddieIcon-RoundHands Copy</title>
    <g id="TeeTimeCaddieIcon-RoundHands-Copy" stroke="none" stroke-width="1" fill="none" fill-rule="evenodd">
        <path d="M14.7582581,17.327371 L9.24125806,17.327371 L9.24125806,18.1361129 C9.24135484,18.1361129 9.64267742,18.3116613 10.0909355,18.7392097 C10.2207581,18.8630323 10.3545484,19.0080484 10.4836452,19.176 C10.9185484,19.7418387 11.3005161,20.5685806 11.3005161,21.7273065 C11.3005161,21.909871 11.3005161,22.1204516 11.3005161,22.3532903 L12.6780968,22.3532903 C12.6780968,22.1204516 12.6780968,21.909871 12.6780968,21.7273065 C12.6780968,20.5685806 13.0577903,19.6314194 13.4926935,19.065629 C13.6218387,18.897629 13.7555806,18.7526613 13.8854516,18.6288387 C14.3336129,18.2013871 14.7370645,18.1361129 14.7373065,18.1361129 L14.7582581,18.1361129 L14.7582581,17.327371" id="Tee" fill="#1A1919"></path>
        <path d="M18.5277097,8.89925806 C18.5277097,12.5045323 15.6050323,15.4272097 11.9997581,15.4272097 C8.39448387,15.4272097 5.47180645,12.5045323 5.47180645,8.89925806 C5.47180645,5.29393548 8.39448387,2.37130645 11.9997581,2.37130645 C15.6050323,2.37130645 18.5277097,5.29393548 18.5277097,8.89925806 Z" id="Ball-Outline" stroke="#1A1919"></path>
        <g id="Clock-Hands" transform="translate(9.116, 4.1379)" fill="#1A1919">
            <path d="M2.8650121,5.21569355 L2.76422177,5.21569355 C2.52364113,5.21569355 2.32685081,5.01890323 2.32685081,4.77837097 L2.32685081,0.437370968 C2.32685081,0.196790323 2.52364113,0 2.76422177,0 L2.8650121,0 C3.10554435,0 3.30233468,0.196790323 3.30233468,0.437370968 L3.30233468,4.77837097 C3.30233468,5.01890323 3.10554435,5.21569355 2.8650121,5.21569355" id="Fill-4"></path>
            <path d="M0.198834677,7.46520968 L0.127560484,7.39393548 C-0.0425201613,7.22385484 -0.0425201613,6.94553226 0.127560484,6.77545161 L2.47022177,4.43274194 C2.64035081,4.26266129 2.91867339,4.26266129 3.08875403,4.43274194 L3.16002823,4.50401613 C3.33010887,4.67409677 3.33010887,4.95241935 3.16002823,5.1225 L0.817318548,7.46520968 C0.647237903,7.63529032 0.368915323,7.63529032 0.198834677,7.46520968" id="Fill-5"></path>
        </g>
    </g>
</svg>