<?xml version="1.0" encoding="UTF-8"?>
<!DOCTYPE svg PUBLIC "-//W3C//DTD SVG 1.1//EN" "http://www.w3.org/Graphics/SVG/1.1/DTD/svg11.dtd">
<!--Generator: TeeTimeCaddie custom symbol template from TeeTimeCaddieTee.svg-->
<svg version="1.1" xmlns="http://www.w3.org/2000/svg" xmlns:xlink="http://www.w3.org/1999/xlink" width="3300" height="2200">
 <g id="Notes">
  <rect height="2200" id="artboard" style="fill:white;opacity:1" width="3300" x="0" y="0"/>
  <line style="fill:none;stroke:black;opacity:1;stroke-width:0.5;" x1="263" x2="3036" y1="292" y2="292"/>
  <text style="stroke:none;fill:black;font-family:sans-serif;font-size:13;font-weight:bold;" transform="matrix(1 0 0 1 263 322)">Weight/Scale Variations</text>
  <text style="stroke:none;fill:black;font-family:sans-serif;font-size:13;" transform="matrix(1 0 0 1 559 322)">Ultralight</text>
  <text style="stroke:none;fill:black;font-family:sans-serif;font-size:13;" transform="matrix(1 0 0 1 1449 322)">Regular</text>
  <text style="stroke:none;fill:black;font-family:sans-serif;font-size:13;" transform="matrix(1 0 0 1 2339 322)">Black</text>
  <text id="template-version" style="stroke:none;fill:black;font-family:sans-serif;font-size:13;text-anchor:end;" transform="matrix(1 0 0 1 3036 1933)">Template v.3.0</text>
 </g>
 <g id="Guides">
  <line id="Baseline-S" style="fill:none;stroke:#00AEEF;opacity:1;stroke-width:0.5;" x1="263" x2="3036" y1="696" y2="696"/>
  <line id="Capline-S" style="fill:none;stroke:#00AEEF;opacity:1;stroke-width:0.5;" x1="263" x2="3036" y1="625.541" y2="625.541"/>
  <line id="Baseline-M" style="fill:none;stroke:#00AEEF;opacity:1;stroke-width:0.5;" x1="263" x2="3036" y1="1126" y2="1126"/>
  <line id="Capline-M" style="fill:none;stroke:#00AEEF;opacity:1;stroke-width:0.5;" x1="263" x2="3036" y1="1055.54" y2="1055.54"/>
  <line id="Baseline-L" style="fill:none;stroke:#00AEEF;opacity:1;stroke-width:0.5;" x1="263" x2="3036" y1="1556" y2="1556"/>
  <line id="Capline-L" style="fill:none;stroke:#00AEEF;opacity:1;stroke-width:0.5;" x1="263" x2="3036" y1="1485.54" y2="1485.54"/>
  <line id="left-margin-Ultralight-S" style="fill:none;stroke:#00AEEF;stroke-width:0.5;opacity:1.0;" x1="520.0000" x2="520.0000" y1="600.785" y2="720.121"/>
  <line id="right-margin-Ultralight-S" style="fill:none;stroke:#00AEEF;stroke-width:0.5;opacity:1.0;" x1="598.0000" x2="598.0000" y1="600.785" y2="720.121"/>
  <line id="left-margin-Regular-S" style="fill:none;stroke:#00AEEF;stroke-width:0.5;opacity:1.0;" x1="1410.0000" x2="1410.0000" y1="600.785" y2="720.121"/>
  <line id="right-margin-Regular-S" style="fill:none;stroke:#00AEEF;stroke-width:0.5;opacity:1.0;" x1="1488.0000" x2="1488.0000" y1="600.785" y2="720.121"/>
  <line id="left-margin-Black-S" style="fill:none;stroke:#00AEEF;stroke-width:0.5;opacity:1.0;" x1="2300.0000" x2="2300.0000" y1="600.785" y2="720.121"/>
  <line id="right-margin-Black-S" style="fill:none;stroke:#00AEEF;stroke-width:0.5;opacity:1.0;" x1="2378.0000" x2="2378.0000" y1="600.785" y2="720.121"/>
 </g>
 <g id="Symbols">
  <g id="Ultralight-S" transform="matrix(1 0 0 1 520.0000 696)">
   <path d="M 78.0000 -74.2295 L 0.0000 -74.2295 L 0.0000 -61.6782 C 0.0014 -61.6782 5.6753 -58.9538 12.0128 -52.3184 C 13.8483 -50.3967 15.7398 -48.1461 17.5650 -45.5396 C 23.7137 -36.7581 29.1140 -23.9274 29.1140 -5.9445 C 29.1140 -3.1112 29.1140 0.1569 29.1140 3.7705 L 48.5904 3.7705 C 48.5904 0.1569 48.5904 -3.1112 48.5904 -5.9445 C 48.5904 -23.9274 53.9586 -38.4717 60.1073 -47.2525 C 61.9332 -49.8598 63.8240 -52.1096 65.6602 -54.0313 C 71.9963 -60.6652 77.7004 -61.6782 77.7038 -61.6782 L 78.0000 -61.6782 L 78.0000 -74.2295 Z"/>
  </g>
  <g id="Regular-S" transform="matrix(1 0 0 1 1410.0000 696)">
   <path d="M 78.0000 -74.2295 L 0.0000 -74.2295 L 0.0000 -61.6782 C 0.0014 -61.6782 5.6753 -58.9538 12.0128 -52.3184 C 13.8483 -50.3967 15.7398 -48.1461 17.5650 -45.5396 C 23.7137 -36.7581 29.1140 -23.9274 29.1140 -5.9445 C 29.1140 -3.1112 29.1140 0.1569 29.1140 3.7705 L 48.5904 3.7705 C 48.5904 0.1569 48.5904 -3.1112 48.5904 -5.9445 C 48.5904 -23.9274 53.9586 -38.4717 60.1073 -47.2525 C 61.9332 -49.8598 63.8240 -52.1096 65.6602 -54.0313 C 71.9963 -60.6652 77.7004 -61.6782 77.7038 -61.6782 L 78.0000 -61.6782 L 78.0000 -74.2295 Z"/>
  </g>
  <g id="Black-S" transform="matrix(1 0 0 1 2300.0000 696)">
   <path d="M 78.0000 -74.2295 L 0.0000 -74.2295 L 0.0000 -61.6782 C 0.0014 -61.6782 5.6753 -58.9538 12.0128 -52.3184 C 13.8483 -50.3967 15.7398 -48.1461 17.5650 -45.5396 C 23.7137 -36.7581 29.1140 -23.9274 29.1140 -5.9445 C 29.1140 -3.1112 29.1140 0.1569 29.1140 3.7705 L 48.5904 3.7705 C 48.5904 0.1569 48.5904 -3.1112 48.5904 -5.9445 C 48.5904 -23.9274 53.9586 -38.4717 60.1073 -47.2525 C 61.9332 -49.8598 63.8240 -52.1096 65.6602 -54.0313 C 71.9963 -60.6652 77.7004 -61.6782 77.7038 -61.6782 L 78.0000 -61.6782 L 78.0000 -74.2295 Z"/>
  </g>
 </g>
</svg>
